PathFileType	4	(X/Y/Z)	C:/Users/beibeiliu/ov580/test_trc\sequence.18_training_dense_left.trc
DataRate	CameraRate	NumFrames	NumMarkers	Units	OrigDataRate	OrigDataStartFrame	OrigNumFrames
120	120	8	19	mm	120	211	336
Frame#	Time	ThumbCMC			ThumbMCP			ThumbIP			ThumbTip			IndexMCP			IndexPIP			IndexTip			MiddleMCP			MiddlePIP			MiddleTip			RingMCP			RingPIP			RingTip			PinkyMCP			PinkyPIP			PinkyTip			BackHand1			BackHand2			BackHand3	
		X0	Y0	Z0	X1	Y1	Z1	X2	Y2	Z2	X3	Y3	Z3	X4	Y4	Z4	X5	Y5	Z5	X6	Y6	Z6	X7	Y7	Z7	X8	Y8	Z8	X9	Y9	Z9	X10	Y10	Z10	X11	Y11	Z11	X12	Y12	Z12	X13	Y13	Z13	X14	Y14	Z14	X15	Y15	Z15	X16	Y16	Z16	X17	Y17	Z17	X18	Y18	Z18	
210	1.75	-273.594	15.3461	37.1386	-280.087	40.0744	37.2467	-286.672	60.4816	27.5632	-292.524	82.566	20.7639	-258.699	40.1819	-24.2725	-251.845	68.3927	-25.4325	-246.857	73.1562	1.33181	-234.166	40.8467	-25.6702	-229.414	67.4196	-22.811	-235.176	62.0675	12.8163	-216.166	34.9541	-17.3317	-217.255	60.2293	-14.9516	-224.53	61.9155	12.5544	-199.757	26.4097	-4.47858	-199.424	53.5598	-3.87935	-216.402	60.5005	14.3873	-230.776	-4.96408	13.5008	-231.656	-18.4758	35.2724	-255.914	-3.72354	18.3366	
211	1.75833	-272.236	15.6648	39.0977	-280.479	42.6294	33.3932	-290.409	62.8115	26.4574	-292.12	80.046	20.7896	-261.994	38.9613	-25.9303	-253.195	64.2243	-28.9042	-249.176	71.696	2.23495	-236.268	37.1619	-26.7051	-231.867	65.5981	-26.7044	-236.027	62.3548	8.9831	-218.745	35.2161	-22.4241	-218.917	62.1819	-16.3927	-226.514	60.8897	11.7914	-203.299	28.521	-9.86189	-202.998	51.0725	-9.14553	-217.815	61.2704	8.95668	-228.432	-3.42463	10.4402	-231.265	-15.9074	31.6608	-260.139	-4.82644	18.9367	
212	1.76667	-278.263	17.7853	39.4567	-285.98	41.6154	37.7386	-291.579	62.3451	24.7796	-293.644	80.4222	18.1828	-264.2	36.6722	-25.93	-258.178	62.2759	-31.7068	-254.394	71.2466	-1.96753	-244.941	34.6683	-27.2418	-232.7	62.6548	-29.0245	-240.18	63.6926	3.15838	-224.421	31.0746	-22.8553	-223.189	59.68	-19.4791	-227.634	62.107	4.31716	-208.909	24.328	-8.53225	-206.102	49.6974	-13.6549	-215.475	59.6213	6.78927	-230.024	-3.67029	12.5441	-232.886	-17.7326	34.384	-255.965	-3.28426	20.2333	
213	1.775	-274.125	16.7401	41.0227	-286.374	44.1422	36.8906	-291.284	61.4472	22.6426	-298.348	82.9868	12.4189	-265.77	34.3897	-28.359	-261.726	59.855	-33.5719	-253.283	69.1915	-8.17222	-245.777	33.9902	-33.1833	-239.043	59.1554	-35.2581	-238.127	62.8806	-2.05151	-226.969	27.4437	-24.8879	-225.701	56.0501	-25.4147	-231.452	61.4814	-0.672927	-211.778	23.6428	-13.1704	-211.319	47.8101	-17.9279	-220.674	60.4373	3.74109	-232.313	-4.29092	11.5024	-234.187	-15.1009	34.7259	-261.869	-3.76417	24.347	
214	1.78333	-276.128	19.5406	41.2525	-284.122	46.5646	31.8991	-290.793	63.91	20.3274	-294.673	80.8685	12.3781	-270.445	31.3398	-28.1783	-261.391	55.2049	-35.5394	-257.292	67.3524	-7.48162	-250.933	27.8111	-31.305	-245.023	58.5777	-35.7591	-244.849	61.595	-4.55603	-229.953	23.2699	-26.6221	-226.457	49.5394	-31.3779	-230.254	57.4018	-2.55732	-214.396	18.5971	-15.9532	-212.304	44.2779	-21.4878	-221.019	57.6811	0.0863938	-238.57	-6.04289	9.53622	-239.023	-14.4886	35.1245	-262.668	-5.76357	23.3187	
215	1.79167	-274.68	22.4268	39.4762	-282.877	47.5066	31.8489	-289.361	65.3097	19.3375	-292.516	81.0337	10.5545	-271.638	26.9219	-23.8505	-263.965	50.5154	-38.718	-257.019	65.2734	-14.5337	-251.475	25.2944	-34.7985	-246.16	50.7716	-41.0863	-245.127	58.4843	-6.14123	-236.2	20.6754	-31.9854	-227.726	44.6148	-34.3136	-232.981	55.6958	-9.08966	-216.384	13.5397	-19.9919	-215.343	35.6083	-28.1209	-222.699	54.2015	-7.95239	-239.118	-6.43393	11.2458	-243.222	-16.4916	37.295	-266.278	-4.35927	22.4192	
216	1.8	-274.311	21.8939	43.228	-281.037	49.7459	28.374	-287.955	65.5596	18.7113	-290.075	82.3078	3.83056	-275.742	24.2203	-25.7026	-266.034	49.7167	-39.4268	-259.126	64.5799	-17.3867	-259.088	20.5888	-32.8185	-249.104	49.1308	-42.7053	-243.788	53.5073	-10.3273	-239.479	14.1763	-28.3112	-231.892	39.6902	-37.2369	-234.654	51.8901	-11.5653	-223.766	8.25558	-20.9794	-219.328	27.9581	-32.6874	-225.195	49.4083	-15.7323	-245.587	-8.37648	11.7024	-241.044	-15.8955	35.3335	-266.421	-4.12817	25.0509	
217	1.80833	-277.348	27.3085	39.3983	-279.599	51.9584	26.8641	-283.465	66.7976	17.1477	-284.544	82.2371	0.920038	-279.093	23.0416	-27.1578	-270.266	42.3486	-42.9367	-261.768	62.6867	-20.6407	-260.519	17.4861	-37.9847	-251.718	42.6115	-46.1042	-245.281	51.9789	-15.0295	-242.634	10.8232	-32.6842	-233.909	32.6888	-41.4785	-236.032	48.5762	-14.8131	-226.129	3.76446	-19.0389	-219.71	21.2268	-35.9667	-224.599	44.0601	-19.783	-247.622	-10.0213	12.2695	-243.015	-15.0698	38.226	-267.587	-3.86846	26.1738	
